<svg width="200" height="200" viewBox="0 0 200 200" fill="none" xmlns="http://www.w3.org/2000/svg">
<g clip-path="url(#clip0_402_999)">
<g id="Button">
<rect x="30" y="24" width="140" height="44" rx="22" fill="url(#paint0_linear_402_999)"/>
<rect x="38" y="30" width="124" height="14" rx="7" fill="white" fill-opacity="0.25"/>
</g>
<g id="Icon">
<path fill-rule="evenodd" clip-rule="evenodd" d="M60 156C74.3594 156 86 144.359 86 130C86 115.641 74.3594 104 60 104C45.6406 104 34 115.641 34 130C34 144.359 45.6406 156 60 156ZM60 142C66.6274 142 72 136.627 72 130C72 123.373 66.6274 118 60 118C53.3726 118 48 123.373 48 130C48 136.627 53.3726 142 60 142Z" fill="#00BFA5"/>
<path d="M50 130L58 138L72 122" stroke="#FFEA00" stroke-width="5" stroke-linecap="round" stroke-linejoin="round"/>
</g>
<g id="Badge" filter="url(#filter0_d_402_999)">
<circle cx="140" cy="130" r="24" fill="#FF1744"/>
<rect x="130" y="127" width="20" height="6" rx="3" fill="white"/>
</g>
</g>
<defs>
<filter id="filter0_d_402_999" x="108" y="102" width="64" height="64" filterUnits="userSpaceOnUse" color-interpolation-filters="sRGB">
<feFlood flood-opacity="0" result="BackgroundImageFix"/>
<feColorMatrix in="SourceAlpha" type="matrix" values="0 0 0 0 0 0 0 0 0 0 0 0 0 0 0 0 0 0 127 0" result="hardAlpha"/>
<feOffset dy="4"/>
<feGaussianBlur stdDeviation="4"/>
<feComposite in2="hardAlpha" operator="out"/>
<feColorMatrix type="matrix" values="0 0 0 0 0 0 0 0 0 0 0 0 0 0 0 0 0 0 0.25 0"/>
<feBlend mode="normal" in2="BackgroundImageFix" result="effect1_dropShadow_402_999"/>
<feBlend mode="normal" in="SourceGraphic" in2="effect1_dropShadow_402_999" result="shape"/>
</filter>
<linearGradient id="paint0_linear_402_999" x1="30" y1="24" x2="170" y2="68" gradientUnits="userSpaceOnUse">
<stop stop-color="#FF00C7"/>
<stop offset="1" stop-color="#5200FF"/>
</linearGradient>
<clipPath id="clip0_402_999">
<rect width="200" height="200" fill="white"/>
</clipPath>
</defs>
</svg>
